<?xml version="1.0" standalone="no"?>
<!DOCTYPE svg PUBLIC "-//W3C//DTD SVG 20010904//EN"
 "http://www.w3.org/TR/2001/REC-SVG-20010904/DTD/svg10.dtd">
<svg version="1.0" xmlns="http://www.w3.org/2000/svg"
 width="830.000000pt" height="512.000000pt" viewBox="0 0 830.000000 512.000000"
 preserveAspectRatio="xMidYMid meet">
<metadata>
Created by potrace 1.16, written by Peter Selinger 2001-2019
</metadata>
<g transform="translate(0.000000,512.000000) scale(0.100000,-0.100000)"
fill="#000000" stroke="none">
<path d="M4005 4875 c-87 -19 -231 -89 -307 -150 -189 -149 -302 -416 -284
-670 16 -237 58 -403 146 -580 288 -580 876 -594 1177 -28 126 236 190 619
140 838 -10 44 -41 127 -69 184 -44 91 -61 116 -141 196 -102 102 -182 153
-305 192 -99 32 -255 40 -357 18z m-247 -490 c139 -57 247 -78 402 -79 126 -1
155 2 220 22 41 13 98 37 127 52 l52 29 54 -107 c63 -123 97 -224 97 -289 l0
-45 43 51 42 50 3 -37 c9 -102 -47 -340 -114 -481 -91 -192 -214 -317 -371
-378 -92 -35 -209 -37 -305 -4 -185 62 -349 252 -431 498 -35 106 -72 281 -62
291 3 3 24 -3 48 -15 l42 -20 0 176 c0 195 12 252 62 291 14 11 27 20 28 20 1
0 29 -11 63 -25z"/>
<path d="M3415 3126 c-173 -45 -322 -130 -445 -255 -73 -73 -180 -221 -180
-248 0 -10 102 -13 525 -13 289 0 525 4 525 9 0 4 -36 66 -81 137 -92 147
-189 337 -189 371 0 19 -5 23 -32 23 -18 -1 -73 -11 -123 -24z"/>
<path d="M4740 3135 c0 -44 -111 -241 -237 -419 -35 -49 -63 -93 -63 -98 0 -4
243 -8 540 -8 297 0 540 2 540 5 0 34 -103 178 -184 258 -132 131 -306 226
-478 261 -97 20 -118 20 -118 1z"/>
<path d="M3935 2909 c10 -47 41 -95 82 -126 35 -27 35 -27 31 -97 l-3 -71 94
-3 94 -3 -7 70 -7 70 49 48 c33 31 54 63 63 91 7 23 10 44 7 47 -3 3 -25 -2
-49 -11 -68 -25 -204 -30 -272 -10 -31 9 -64 19 -73 23 -14 5 -15 1 -9 -28z"/>
<path d="M2360 2554 c-69 -30 -110 -86 -110 -152 0 -22 27 -167 60 -323 34
-156 72 -336 85 -399 13 -63 58 -275 100 -470 42 -195 87 -410 100 -476 14
-67 29 -132 34 -146 13 -35 74 -85 118 -97 53 -15 2753 -15 2806 0 21 6 56 26
76 45 41 36 44 45 80 219 25 119 82 392 231 1089 60 285 110 534 110 552 0 69
-37 124 -105 155 -38 18 -110 19 -1795 18 -1545 0 -1759 -2 -1790 -15z m1860
-979 c35 -36 34 -95 -3 -132 -60 -61 -162 -19 -162 66 0 89 101 130 165 66z"/>
<path d="M2565 415 c-30 -29 -32 -74 -6 -106 l19 -24 1566 -3 1567 -2 24 24
c33 33 33 79 0 111 l-24 25 -1561 0 -1561 0 -24 -25z"/>
</g>
</svg>
